<svg xmlns="http://www.w3.org/2000/svg" xmlns:xlink="http://www.w3.org/1999/xlink" width="601" height="145" viewBox="0 0 601 145"><defs><polygon id="powered-by-aws-logo-a" points=".05 .124 25.527 .124 25.527 25.215 .05 25.215"/><polygon id="powered-by-aws-logo-c" points="0 .025 29.836 .025 29.836 45.12 0 45.12"/></defs><g fill="none" fill-rule="evenodd"><rect width="601" height="145" fill="#FFF"/><g transform="translate(45.152 37.441)"><path fill="#3B3C40" d="M463.021628,46.8114688 C460.648051,46.8114688 458.3289,46.54841 456.061152,46.0222924 C453.796427,45.493151 452.05782,44.8884181 450.84533,44.2020462 C450.107556,43.7817569 449.641912,43.3584438 449.463515,42.9411781 C449.276048,42.517865 449.185338,42.094552 449.185338,41.6712389 L449.185338,39.3793011 C449.185338,38.4298705 449.523989,37.9581788 450.216408,37.9581788 C450.473419,37.9581788 450.748573,38.0095811 451.041868,38.1154093 C451.33214,38.2212376 451.713122,38.3784682 452.187837,38.5901247 C453.717811,39.2764966 455.377803,39.8026142 457.167813,40.1684776 C458.960846,40.5373647 460.753879,40.7218082 462.546912,40.7218082 C465.395204,40.7218082 467.596432,40.2259272 469.150596,39.2220706 C470.704759,38.2212376 471.481841,36.7970915 471.481841,34.9496325 C471.481841,33.6857406 471.073647,32.636529 470.257257,31.7899029 C469.437844,30.9463005 467.926012,30.1541003 465.709665,29.4163262 L459.14529,27.3602342 C455.825306,26.3079989 453.415445,24.7780246 451.90966,22.773335 C450.409922,20.771669 449.660054,18.5825358 449.660054,16.208959 C449.660054,14.3131213 450.068248,12.6380111 450.881614,11.1896757 C451.701027,9.74134037 452.780475,8.50163786 454.126006,7.47056822 C455.468513,6.44252224 457.037795,5.67148776 458.830828,5.14234645 C460.620838,4.61320514 462.522723,4.35014632 464.524389,4.35014632 C465.525222,4.35014632 466.541173,4.41666694 467.569219,4.54668452 C468.597265,4.6767021 469.570885,4.85207465 470.496127,5.06070751 C471.415321,5.27538769 472.274041,5.50820987 473.063218,5.77429236 C473.855418,6.04037485 474.487364,6.30343367 474.959056,6.56346883 C475.594025,6.93537958 476.044551,7.30729033 476.30761,7.67013009 C476.567645,8.04204084 476.700686,8.5409455 476.700686,9.17591508 L476.700686,11.3075986 C476.700686,12.2570293 476.359012,12.7317447 475.675664,12.7317447 C475.303753,12.7317447 474.726233,12.5473011 473.934033,12.1814377 C471.351824,11.0173268 468.452129,10.4367832 465.23495,10.4367832 C462.652741,10.4367832 460.648051,10.8600963 459.223905,11.7067224 C457.799759,12.5473011 457.092221,13.8898082 457.092221,15.740291 C457.092221,17.0011592 457.542747,18.0685128 458.431705,18.9393282 C459.329733,19.8071199 460.992749,20.6386277 463.417728,21.4308279 L469.821849,23.4838961 C473.090431,24.5421788 475.4247,25.9905141 476.818609,27.8349496 C478.215542,29.6824087 478.917033,31.7899029 478.917033,34.160456 C478.917033,36.1137433 478.523956,37.8644452 477.728732,39.4216325 C476.94258,40.9757961 475.844989,42.3062085 474.448056,43.4128698 C473.0481,44.519531 471.379037,45.3631335 469.428773,45.9406534 C467.475486,46.5242207 465.340778,46.8114688 463.021628,46.8114688 L463.021628,46.8114688 Z M404.982385,45.6261923 C404.190185,45.6261923 403.609641,45.4840801 403.240754,45.1938082 C402.868843,44.9065601 402.557406,44.3108982 402.291323,43.4128698 L391.696402,8.45930656 C391.43032,7.56732549 391.297279,6.95654523 391.297279,6.64510778 C391.297279,5.90430994 391.666166,5.53542285 392.406964,5.53542285 L396.836632,5.53542285 C397.680235,5.53542285 398.269849,5.67753509 398.614547,5.9678069 C398.959245,6.2580787 399.261611,6.85374064 399.521647,7.74874537 L407.114068,37.640694 L414.15316,7.74874537 C414.361793,6.85374064 414.655088,6.2580787 415.023975,5.9678069 C415.389839,5.67753509 415.997595,5.53542285 416.844221,5.53542285 L420.48169,5.53542285 C421.325292,5.53542285 421.930025,5.67753509 422.295889,5.9678069 C422.664776,6.2580787 422.955047,6.85374064 423.166704,7.74874537 L430.284411,38.0367941 L438.115702,7.74874537 C438.378761,6.85374064 438.678104,6.2580787 439.022801,5.9678069 C439.364475,5.67753509 439.960137,5.53542285 440.800716,5.53542285 L444.991515,5.53542285 C445.732313,5.53542285 446.1012,5.90430994 446.1012,6.64510778 C446.1012,6.85374064 446.073987,7.08958648 446.019561,7.35566897 C445.965135,7.61570412 445.862331,7.98459121 445.702077,8.45930656 L434.792695,43.4128698 C434.526612,44.3108982 434.212151,44.9065601 433.846287,45.1938082 C433.474377,45.4840801 432.893833,45.6261923 432.104657,45.6261923 L428.228319,45.6261923 C427.38774,45.6261923 426.77696,45.4719854 426.41412,45.1514769 C426.042209,44.8400395 425.748914,44.2292592 425.540281,43.3342545 L418.501189,14.234506 L411.546761,43.3342545 C411.332081,44.2292592 411.041809,44.8400395 410.675945,45.1514769 C410.304035,45.4719854 409.696278,45.6261923 408.855699,45.6261923 L404.982385,45.6261923 Z M368.686315,40.7218082 C370.158839,40.7218082 371.713003,40.4466548 373.351829,39.8963478 C374.984608,39.3399935 376.40573,38.3784682 377.621244,37.0087481 C378.359018,36.1651456 378.870017,35.2005966 379.163313,34.1181247 C379.450561,33.0386764 379.595697,31.7385006 379.595697,30.2085263 L379.595697,28.3126886 C378.280402,27.9921801 376.895564,27.7442396 375.447229,27.5597961 C373.998893,27.3753525 372.583818,27.2816189 371.214098,27.2816189 C368.211599,27.2816189 365.96804,27.8863519 364.495515,29.101865 C363.016943,30.3113309 362.279169,32.0499381 362.279169,34.3176865 C362.279169,36.4282045 362.8325,38.0246994 363.939161,39.1041477 C365.048846,40.1835959 366.624175,40.7218082 368.686315,40.7218082 L368.686315,40.7218082 Z M387.027864,33.8459949 C387.027864,35.5362234 387.200213,36.8757068 387.541887,37.8795635 C387.883561,38.8773728 388.376419,39.9598448 389.008365,41.1179083 C389.216997,41.4867954 389.322826,41.8314932 389.322826,42.148978 C389.322826,42.6236933 389.032554,43.0711957 388.455034,43.4884614 L385.603718,45.3903465 C385.183429,45.6534053 384.790352,45.7834229 384.421465,45.7834229 C383.94675,45.7834229 383.496224,45.57479 383.075935,45.1514769 C382.443989,44.519531 381.905776,43.8240882 381.45525,43.0560773 C381.007748,42.2941139 380.548151,41.4112038 380.070412,40.4103708 C376.538772,44.5709333 372.112127,46.6542383 366.787453,46.6542383 C362.992754,46.6542383 359.984208,45.57479 357.770885,43.4128698 C355.557563,41.2509496 354.450901,38.3512552 354.450901,34.7137866 C354.450901,30.8676852 355.820622,27.7684289 358.563085,25.4220652 C361.302525,23.0757014 364.99442,21.9055432 369.632722,21.9055432 C371.159672,21.9055432 372.756167,22.0234661 374.413135,22.2623356 C376.076151,22.4981815 377.802663,22.8247373 379.595697,23.251074 L379.595697,19.9280665 C379.595697,16.5022545 378.885135,14.0893701 377.464013,12.6954607 C376.036843,11.295504 373.587675,10.5970375 370.107437,10.5970375 C368.529084,10.5970375 366.902352,10.7935757 365.242361,11.1896757 C363.582369,11.5857758 361.961684,12.0997988 360.380308,12.7317447 C359.645557,13.0492295 359.116416,13.242744 358.798931,13.324383 C358.48447,13.4029982 358.245601,13.4453295 358.085346,13.4453295 C357.4534,13.4453295 357.138939,12.9675905 357.138939,12.0181598 L357.138939,9.80483732 C357.138939,9.06706315 357.244768,8.5409455 357.4534,8.22346072 C357.665057,7.90597593 358.085346,7.59151481 358.720316,7.27705368 C360.301692,6.48485355 362.200554,5.80150534 364.413876,5.21793807 C366.624175,4.64041812 368.973563,4.35014632 371.452968,4.35014632 C376.829043,4.35014632 380.771902,5.57473049 383.272473,8.02692252 C385.776067,10.4760909 387.027864,14.1831037 387.027864,19.1388901 L387.027864,33.8459949 L387.027864,33.8459949 Z"/><path fill="#F90" d="M471.570132,69.06685 C456.687655,80.0457763 435.122879,85.8844728 416.548507,85.8844728 C390.517778,85.8844728 367.07833,76.2631719 349.341513,60.2468203 C347.947604,58.9889758 349.19033,57.2715343 350.86544,58.2451543 C370.002213,69.3813112 393.668437,76.0847757 418.111741,76.0847757 C434.599785,76.0847757 452.726654,72.665011 469.405188,65.5896357 C471.920877,64.5253057 474.028372,67.2466039 471.570132,69.06685"/><g transform="translate(459.103 55.154)"><mask id="powered-by-aws-logo-b" fill="#fff"><use xlink:href="#powered-by-aws-logo-a"/></mask><path fill="#F90" d="M18.6592206,6.84364625 C16.7543118,4.40657255 6.08077566,5.69163002 1.28221988,6.2661263 C-0.172162813,6.43545152 -0.395913996,5.16551237 0.913332792,4.25236565 C9.43099608,-1.73449033 23.3821847,-0.00797782285 25.0089163,1.99671183 C26.6416952,4.01349615 24.5765323,18.0039924 16.5970813,24.6832676 C15.3694734,25.7082899 14.2023389,25.1640303 14.7435748,23.8064049 C16.5396316,19.3223102 20.5611056,9.28071995 18.6592206,6.84364625" mask="url(#powered-by-aws-logo-b)"/></g><g transform="translate(0 13.317)"><mask id="powered-by-aws-logo-d" fill="#fff"><use xlink:href="#powered-by-aws-logo-c"/></mask><path fill="#3B3C40" d="M14.6393747,27.3287881 C17.2760103,27.3287881 19.2323213,26.4337834 20.5083078,24.6407502 C21.7842943,22.8507408 22.4222875,20.1233953 22.4222875,16.4556901 C22.4222875,12.8333398 21.7963889,10.145302 20.5385444,8.39460014 C19.2837236,6.64389831 17.3364836,5.77005923 14.7028717,5.77005923 C12.0239048,5.77005923 9.55357079,6.55318837 7.28884598,8.11642299 L7.28884598,24.9189274 C9.5959021,26.5244933 12.0450705,27.3287881 14.6393747,27.3287881 L14.6393747,27.3287881 Z M1.35943962,45.1200308 C0.45234023,45.1200308 -0.00120946586,44.6634575 -0.00120946586,43.7624054 L-0.00120946586,2.31401055 C-0.00120946586,1.40691116 0.45234023,0.950337796 1.35943962,0.950337796 L4.75501501,0.950337796 C5.6621144,0.950337796 6.19730304,1.36457985 6.3636046,2.1900403 L6.73249168,4.10099635 C8.17477972,2.78570223 9.76825098,1.77579824 11.5219765,1.07430805 C13.2696546,0.375841515 15.0929244,0.0250964165 16.9857385,0.0250964165 C20.8983605,0.0250964165 24.0187824,1.4885501 26.3470042,4.41243381 C28.6722023,7.33631751 29.8363132,11.2670815 29.8363132,16.2077496 C29.8363132,19.6275143 29.2708879,22.6118713 28.1370137,25.1668679 C27.0031394,27.7218645 25.4278101,29.6751519 23.4110258,31.0358009 C21.3942415,32.3934264 19.0871854,33.0737509 16.4928811,33.0737509 C14.763345,33.0737509 13.0942821,32.7744081 11.4887162,32.1787462 C9.88315024,31.5800606 8.48319351,30.7485528 7.28884598,29.6751519 L7.28884598,43.7624054 C7.28884598,44.6634575 6.83529628,45.1200308 5.93122055,45.1200308 L1.35943962,45.1200308 Z" mask="url(#powered-by-aws-logo-d)"/></g><path fill="#3B3C40" d="M50.7153222 40.8941571C55.9039308 40.8941571 58.498235 37.2476176 58.498235 29.9605858 58.498235 22.709838 55.9039308 19.0874878 50.7153222 19.0874878 45.5267137 19.0874878 42.9324095 22.709838 42.9324095 29.9605858 42.9324095 37.2476176 45.5267137 40.8941571 50.7153222 40.8941571M50.7153222 46.6360963C45.9379321 46.6360963 42.2097536 45.1665953 39.5338104 42.2215459 36.8578672 39.2795202 35.5214074 35.188502 35.5214074 29.9605858 35.5214074 24.729646 36.8578672 20.653746 39.5338104 17.7298623 42.2097536 14.8059786 45.9379321 13.3425249 50.7153222 13.3425249 55.4927124 13.3425249 59.2208909 14.8059786 61.8968341 17.7298623 64.5727773 20.653746 65.9122607 24.729646 65.9122607 29.9605858 65.9122607 35.188502 64.5727773 39.2795202 61.8968341 42.2215459 59.2208909 45.1665953 55.4927124 46.6360963 50.7153222 46.6360963M80.1812365 45.7102502C79.2348295 45.7102502 78.6361439 45.2778661 78.3882034 44.413098L69.2476652 16.3686085C69.0390323 15.7517809 68.9392514 15.3405625 68.9392514 15.1349533 68.9392514 14.5574334 69.3293041 14.2701853 70.1124333 14.2701853L75.1165982 14.2701853C75.9813663 14.2701853 76.516555 14.660238 76.7221642 15.4433671L82.5880736 38.2357512 88.5809769 15.5068641C88.7049471 15.0109831 88.9014853 14.6814037 89.1705915 14.5181258 89.436674 14.3518242 89.8176557 14.2701853 90.3135367 14.2701853L94.3894366 14.2701853C94.9216016 14.2701853 95.314678 14.3608952 95.5626185 14.5453387 95.810559 14.7328059 95.9950026 15.0502907 96.1189728 15.5068641L102.108852 38.6711589 108.286199 15.4433671C108.491809 14.660238 109.030021 14.2701853 109.894789 14.2701853L114.403073 14.2701853C115.183178 14.2701853 115.576255 14.5574334 115.576255 15.1349533 115.576255 15.3405625 115.47345 15.7517809 115.267841 16.3686085L105.939836 44.413098C105.652587 45.2778661 105.053902 45.7102502 104.149826 45.7102502L99.8259857 45.7102502C99.3301047 45.7102502 98.9400519 45.6195402 98.6497801 45.432073 98.362532 45.2506531 98.1569228 44.908979 98.0329525 44.413098L92.1640195 22.1135713 86.2950864 44.413098C86.1741398 44.908979 85.965507 45.2506531 85.6782588 45.432073 85.3910107 45.6195402 84.9979343 45.7102502 84.5050769 45.7102502L80.1812365 45.7102502zM139.606225 26.8713076L139.606225 26.3784503C139.606225 23.865785 139.058941 21.9518053 137.967399 20.6334875 136.875856 19.3151697 135.282384 18.6560108 133.180937 18.6560108 130.958544 18.6560108 129.144345 19.3968087 127.744388 20.881428 126.344432 22.3630237 125.543161 24.3586423 125.334528 26.8713076L139.606225 26.8713076zM134.417616 46.6370034C129.225984 46.6370034 125.29522 45.2370467 122.619277 42.4371332 119.94031 39.6402434 118.60385 35.5613198 118.60385 30.2064097 118.60385 24.893831 119.910073 20.7574577 122.525543 17.7912427 125.141013 14.8280514 128.796624 13.3404084 133.489351 13.3404084 137.525943 13.3404084 140.6252 14.4470696 142.78712 16.6482975 144.94904 18.852549 146.031512 21.9699473 146.031512 26.0065396 146.031512 27.4064963 145.925684 28.86995 145.720075 30.3908533 145.638436 30.9290656 145.484229 31.2888817 145.257454 31.4733252 145.030679 31.6577688 144.731336 31.7515024 144.362449 31.7515024L125.334528 31.7515024C125.458498 34.8809953 126.335361 37.1759567 127.962092 38.6394104 129.588824 40.0998404 132.089394 40.8315673 135.466828 40.8315673 137.937162 40.8315673 140.531466 40.4384909 143.249741 39.6583854 143.57932 39.5737228 143.827261 39.5132495 143.990538 39.4739419 144.153816 39.4316105 144.298952 39.4104449 144.422923 39.4104449 145.03975 39.4104449 145.351188 39.8216633 145.351188 40.6471237L145.351188 42.8695172C145.351188 43.4863448 145.257454 43.9308235 145.07301 44.196906 144.888567 44.4660122 144.46223 44.7230237 143.806095 44.9679405 141.048513 46.0836728 137.915996 46.6370034 134.417616 46.6370034L134.417616 46.6370034zM154.491423 45.7102502C153.587348 45.7102502 153.133798 45.2597241 153.133798 44.3526247L153.133798 15.6308343C153.133798 14.723735 153.587348 14.2701853 154.491423 14.2701853L157.766052 14.2701853C158.340548 14.2701853 158.742696 14.3518242 158.969471 14.5181258 159.196246 14.6814037 159.350452 14.9898174 159.435115 15.4433671L160.175913 18.9629128C161.820786 17.1547613 163.365879 15.8757512 164.808167 15.1349533 166.250455 14.3941555 167.81369 14.0222448 169.503918 14.0222448L169.748835 14.0222448C170.284024 14.0222448 170.728503 14.0736471 171.079248 14.1764517 171.426969 14.2792563 171.67491 14.4546288 171.820045 14.7025693 171.962158 14.9474861 172.034726 15.4040595 172.034726 16.0601947L172.034726 19.3983205C172.034726 20.2630886 171.665839 20.6954726 170.925041 20.6954726 170.6771 20.6954726 170.335426 20.674307 169.903042 20.6319757 169.470658 20.5896444 169.008037 20.5715024 168.51518 20.5715024 165.467326 20.5715024 162.770217 21.3516078 160.42083 22.9178661L160.42083 44.3526247C160.42083 45.2597241 159.970304 45.7102502 159.063204 45.7102502L154.491423 45.7102502zM196.372202 26.8713076L196.372202 26.3784503C196.372202 23.865785 195.824919 21.9518053 194.733376 20.6334875 193.644857 19.3151697 192.048362 18.6560108 189.946915 18.6560108 187.724521 18.6560108 185.913346 19.3968087 184.51339 20.881428 183.110409 22.3630237 182.309138 24.3586423 182.103529 26.8713076L196.372202 26.8713076zM191.183594 46.6370034C185.994985 46.6370034 182.061198 45.2370467 179.385254 42.4371332 176.709311 39.6402434 175.369828 35.5613198 175.369828 30.2064097 175.369828 24.893831 176.676051 20.7574577 179.294544 17.7912427 181.906991 14.8280514 185.562601 13.3404084 190.258352 13.3404084 194.294945 13.3404084 197.391177 14.4470696 199.553097 16.6482975 201.715018 18.852549 202.79749 21.9699473 202.79749 26.0065396 202.79749 27.4064963 202.694685 28.86995 202.486052 30.3908533 202.404413 30.9290656 202.250206 31.2888817 202.026455 31.4733252 201.796657 31.6577688 201.500338 31.7515024 201.128427 31.7515024L182.103529 31.7515024C182.227499 34.8809953 183.101338 37.1759567 184.72807 38.6394104 186.354801 40.0998404 188.858396 40.8315673 192.232805 40.8315673 194.706163 40.8315673 197.300467 40.4384909 200.018742 39.6583854 200.345298 39.5737228 200.593238 39.5132495 200.75954 39.4739419 200.922818 39.4316105 201.067953 39.4104449 201.191924 39.4104449 201.808751 39.4104449 202.117165 39.8216633 202.117165 40.6471237L202.117165 42.8695172C202.117165 43.4863448 202.026455 43.9308235 201.838988 44.196906 201.654544 44.4660122 201.231231 44.7230237 200.572072 44.9679405 197.81449 46.0836728 194.681974 46.6370034 191.183594 46.6370034L191.183594 46.6370034zM223.613304 40.6459143C226.041307 40.6459143 228.408836 39.8627851 230.718916 38.2995505L230.718916 21.3095789C228.617469 19.8279832 226.289247 19.0871854 223.737274 19.0871854 220.976669 19.0871854 218.950813 19.9610245 217.653661 21.7117263 216.356509 23.4624281 215.706421 26.150466 215.706421 29.7728162 215.706421 37.023564 218.340033 40.6459143 223.613304 40.6459143M221.327414 46.3908771C217.375484 46.3908771 214.215754 44.9183524 211.845201 41.973303 209.477672 39.0312773 208.295419 35.0642293 208.295419 30.0842537 208.295419 26.664489 208.860844 23.689203 209.994719 21.1583957 211.125569 18.6245647 212.700898 16.6894193 214.717683 15.3499359 216.737491 14.0104525 219.062689 13.3422226 221.699324 13.3422226 224.992095 13.3422226 228.000642 14.4125999 230.718916 16.5533544L230.718916 1.35943962C230.718916.45234023 231.169442.00181419878 232.076541.00181419878L236.648322.00181419878C237.552398.00181419878 238.005948.45234023 238.005948 1.35943962L238.005948 44.3529271C238.005948 45.2570028 237.552398 45.7105525 236.648322 45.7105525L233.06528 45.7105525C232.15818 45.7105525 231.622992 45.2993341 231.459714 44.4768974L231.02733 42.6838642C228.224393 45.1541982 224.992095 46.3908771 221.327414 46.3908771M277.724806 40.6459143C280.361442 40.6459143 282.317753 39.7509095 283.59374 37.9578764 284.869726 36.1678669 285.507719 33.4405214 285.507719 29.7728162 285.507719 26.150466 284.881821 23.4624281 283.623976 21.7117263 282.369155 19.9610245 280.421915 19.0871854 277.788303 19.0871854 275.109337 19.0871854 272.639003 19.8703145 270.374278 21.4335492L270.374278 38.2360535C272.681334 39.8416195 275.130502 40.6459143 277.724806 40.6459143M279.578313 46.3908771C277.724806 46.3908771 275.955963 46.049203 274.265734 45.3688784 272.575506 44.6915776 271.115076 43.7330759 269.88142 42.4994207L269.449036 44.4768974C269.282735 45.2993341 268.747546 45.7105525 267.840447 45.7105525L264.444871 45.7105525C263.537772 45.7105525 263.084222 45.2570028 263.084222 44.3529271L263.084222 1.35943962C263.084222.45234023 263.537772.00181419878 264.444871.00181419878L269.016652.00181419878C269.920728.00181419878 270.374278.45234023 270.374278 1.35943962L270.374278 17.0492354C273.298161 14.5789014 276.530459 13.3422226 280.07117 13.3422226 283.983792 13.3422226 287.104214 14.8056763 289.432436 17.72956 291.757634 20.6534437 292.921745 24.5842077 292.921745 29.5248757 292.921745 32.9446404 292.35632 35.9289974 291.222445 38.4839941 290.088571 41.0389907 288.525337 42.992278 286.526694 44.3529271 284.531076 45.7105525 282.214948 46.3908771 279.578313 46.3908771M302.619847 59.1779548C301.09592 59.1779548 299.798768 59.0116533 298.728391 58.6850975 298.193202 58.5187959 297.842457 58.3010921 297.679179 58.0350096 297.512877 57.7659034 297.431238 57.3244484 297.431238 56.7076208L297.431238 54.6061739C297.431238 53.7837371 297.760818 53.3694951 298.419977 53.3694951 298.625586 53.3694951 298.870503 53.3906607 299.160775 53.4360157 299.448023 53.4722997 299.922738 53.4934653 300.581897 53.4934653 302.350741 53.4934653 303.669059 53.1759805 304.533827 52.5349636 305.398595 51.8939467 306.242197 50.4546824 307.067658 48.2232178L307.868929 46.049203 296.19456 16.1209704C296.031282 15.709752 295.946619 15.3801725 295.946619 15.1352557 295.946619 14.5577358 296.31853 14.267464 297.059328 14.267464L302.063493 14.267464C302.928261 14.267464 303.463449 14.6605404 303.669059 15.4406458L311.328001 39.1340819 319.113938 15.4406458C319.319547 14.6605404 319.854735 14.267464 320.719503 14.267464L325.415255 14.267464C326.156052 14.267464 326.52494 14.5577358 326.52494 15.1352557 326.52494 15.3801725 326.440277 15.709752 326.280023 16.1209704L312.81262 50.6844809C311.660604 53.6990745 310.299955 55.8700657 308.733697 57.1944308 307.170462 58.5157723 305.132512 59.1779548 302.619847 59.1779548"/></g></g></svg>